<svg width="800" height="620" viewBox="0 0 800 620" fill="none" xmlns="http://www.w3.org/2000/svg">
  <rect width="800" height="620" rx="32" fill="#F7F4EF"/>
  <rect x="40" y="40" width="720" height="540" rx="28" fill="white" stroke="#E8E1D8"/>
  <rect x="68" y="78" width="190" height="28" rx="14" fill="#F3E8E3"/>
  <text x="84" y="98" fill="#8A4F4F" font-family="Arial, sans-serif" font-size="14" font-weight="700">BUILT WITH ELEMENTS</text>
  <text x="68" y="182" fill="#111111" font-family="Arial, sans-serif" font-size="34" font-weight="700">Spring Launch Brief</text>
  <rect x="68" y="210" width="664" height="130" rx="18" fill="#FFFDFB" stroke="#EEE6DE"/>
  <text x="88" y="246" fill="#57534E" font-family="Arial, sans-serif" font-size="16">Hi team,</text>
  <text x="88" y="278" fill="#57534E" font-family="Arial, sans-serif" font-size="16">This original concept keeps the hierarchy crisp and the tone approachable.</text>
  <text x="88" y="302" fill="#57534E" font-family="Arial, sans-serif" font-size="16">It is designed to feel elegant, reusable, and easy to adapt for a real campaign.</text>
  <rect x="68" y="360" width="294" height="154" rx="18" fill="#F8F5EF"/>
  <text x="88" y="394" fill="#8A4F4F" font-family="Arial, sans-serif" font-size="14" font-weight="700">HIGHLIGHTS</text>
  <circle cx="93" cy="420" r="5" fill="#C18470"/>
  <text x="108" y="425" fill="#3F3A36" font-family="Arial, sans-serif" font-size="15">Original layout</text>
  <circle cx="93" cy="450" r="5" fill="#C18470"/>
  <text x="108" y="455" fill="#3F3A36" font-family="Arial, sans-serif" font-size="15">Premium preview</text>
  <circle cx="93" cy="480" r="5" fill="#C18470"/>
  <text x="108" y="485" fill="#3F3A36" font-family="Arial, sans-serif" font-size="15">Campaign-ready CTA</text>
  <rect x="386" y="360" width="346" height="154" rx="18" fill="#111111"/>
  <text x="414" y="406" fill="#FFFFFF" font-family="Arial, sans-serif" font-size="21" font-weight="700">Launch Preview</text>
  <text x="414" y="436" fill="#F5F5F5" font-family="Arial, sans-serif" font-size="15">Make the message feel polished from the first glance.</text>
  <rect x="414" y="456" width="112" height="34" rx="17" fill="#FFFFFF"/>
  <text x="455" y="479" fill="#111111" font-family="Arial, sans-serif" font-size="14" font-weight="700">Try it</text>
</svg>
